<svg id="visual" viewBox="0 0 900 100" width="900" height="100" xmlns="http://www.w3.org/2000/svg" xmlns:xlink="http://www.w3.org/1999/xlink" version="1.1"><path d="M0 7L13.7 7.5C27.3 8 54.7 9 82 9.2C109.3 9.3 136.7 8.7 163.8 8.7C191 8.7 218 9.3 245.2 9.5C272.3 9.7 299.7 9.3 327 8.5C354.3 7.7 381.7 6.3 409 6.8C436.3 7.3 463.7 9.7 491 10.7C518.3 11.7 545.7 11.3 573 10.2C600.3 9 627.7 7 654.8 6.2C682 5.3 709 5.7 736.2 6.3C763.3 7 790.7 8 818 8.7C845.3 9.3 872.7 9.7 886.3 9.8L900 10L900 0L886.3 0C872.7 0 845.3 0 818 0C790.7 0 763.3 0 736.2 0C709 0 682 0 654.8 0C627.7 0 600.3 0 573 0C545.7 0 518.3 0 491 0C463.7 0 436.3 0 409 0C381.7 0 354.3 0 327 0C299.7 0 272.3 0 245.2 0C218 0 191 0 163.8 0C136.7 0 109.3 0 82 0C54.7 0 27.3 0 13.7 0L0 0Z" fill="#b0c4de"></path><path d="M0 17L13.7 16.7C27.3 16.3 54.7 15.7 82 16.3C109.3 17 136.7 19 163.8 19.8C191 20.7 218 20.3 245.2 19.7C272.3 19 299.7 18 327 16.3C354.3 14.7 381.7 12.3 409 13.5C436.3 14.7 463.7 19.3 491 20.8C518.3 22.3 545.7 20.7 573 18.3C600.3 16 627.7 13 654.8 11.8C682 10.7 709 11.3 736.2 13.7C763.3 16 790.7 20 818 20.5C845.3 21 872.7 18 886.3 16.5L900 15L900 8L886.3 7.8C872.7 7.7 845.3 7.3 818 6.7C790.7 6 763.3 5 736.2 4.3C709 3.7 682 3.3 654.8 4.2C627.7 5 600.3 7 573 8.2C545.7 9.3 518.3 9.7 491 8.7C463.7 7.7 436.3 5.3 409 4.8C381.7 4.3 354.3 5.7 327 6.5C299.7 7.3 272.3 7.7 245.2 7.5C218 7.3 191 6.7 163.8 6.7C136.7 6.7 109.3 7.3 82 7.2C54.7 7 27.3 6 13.7 5.5L0 5Z" fill="#a8b2e1"></path><path d="M0 44L13.7 45.3C27.3 46.7 54.7 49.3 82 50C109.3 50.7 136.7 49.3 163.8 47.7C191 46 218 44 245.2 44.8C272.3 45.7 299.7 49.3 327 49.2C354.3 49 381.7 45 409 46C436.3 47 463.7 53 491 52.2C518.3 51.3 545.7 43.7 573 39C600.3 34.3 627.7 32.7 654.8 35.2C682 37.7 709 44.3 736.2 46C763.3 47.7 790.7 44.3 818 42.8C845.3 41.3 872.7 41.7 886.3 41.8L900 42L900 13L886.3 14.5C872.7 16 845.3 19 818 18.5C790.7 18 763.3 14 736.2 11.7C709 9.3 682 8.7 654.8 9.8C627.7 11 600.3 14 573 16.3C545.7 18.7 518.3 20.3 491 18.8C463.7 17.3 436.3 12.7 409 11.5C381.7 10.3 354.3 12.7 327 14.3C299.7 16 272.3 17 245.2 17.7C218 18.3 191 18.7 163.8 17.8C136.7 17 109.3 15 82 14.3C54.7 13.7 27.3 14.3 13.7 14.7L0 15Z" fill="#b19bdc"></path><path d="M0 54L13.7 54.7C27.3 55.3 54.7 56.7 82 56.8C109.3 57 136.7 56 163.8 54.2C191 52.3 218 49.7 245.2 50.3C272.3 51 299.7 55 327 55C354.3 55 381.7 51 409 52.2C436.3 53.3 463.7 59.7 491 59.5C518.3 59.3 545.7 52.7 573 49C600.3 45.3 627.7 44.7 654.8 46.2C682 47.7 709 51.3 736.2 51.8C763.3 52.3 790.7 49.7 818 48.8C845.3 48 872.7 49 886.3 49.5L900 50L900 40L886.3 39.8C872.7 39.7 845.3 39.3 818 40.8C790.7 42.3 763.3 45.7 736.2 44C709 42.3 682 35.7 654.8 33.2C627.7 30.7 600.3 32.3 573 37C545.7 41.7 518.3 49.3 491 50.2C463.7 51 436.3 45 409 44C381.7 43 354.3 47 327 47.2C299.7 47.3 272.3 43.7 245.2 42.8C218 42 191 44 163.8 45.7C136.7 47.3 109.3 48.7 82 48C54.7 47.3 27.3 44.7 13.7 43.3L0 42Z" fill="#c57fc8"></path><path d="M0 63L13.7 63.7C27.3 64.3 54.7 65.7 82 66.3C109.3 67 136.7 67 163.8 65.7C191 64.3 218 61.7 245.2 62.8C272.3 64 299.7 69 327 69.3C354.3 69.7 381.7 65.3 409 66C436.3 66.7 463.7 72.3 491 73.7C518.3 75 545.7 72 573 67.7C600.3 63.3 627.7 57.7 654.8 57.8C682 58 709 64 736.2 64.5C763.3 65 790.7 60 818 59.2C845.3 58.3 872.7 61.7 886.3 63.3L900 65L900 48L886.3 47.5C872.7 47 845.3 46 818 46.8C790.7 47.7 763.3 50.3 736.2 49.8C709 49.3 682 45.7 654.8 44.2C627.7 42.7 600.3 43.3 573 47C545.7 50.7 518.3 57.3 491 57.5C463.7 57.7 436.3 51.3 409 50.2C381.7 49 354.3 53 327 53C299.7 53 272.3 49 245.2 48.3C218 47.7 191 50.3 163.8 52.2C136.7 54 109.3 55 82 54.8C54.7 54.7 27.3 53.3 13.7 52.7L0 52Z" fill="#d85ea5"></path><path d="M0 85L13.7 85.8C27.3 86.7 54.7 88.3 82 88.8C109.3 89.3 136.7 88.7 163.8 88.7C191 88.7 218 89.3 245.2 89.3C272.3 89.3 299.7 88.7 327 88.3C354.3 88 381.7 88 409 89.2C436.3 90.3 463.7 92.7 491 93.7C518.3 94.7 545.7 94.3 573 92.5C600.3 90.7 627.7 87.3 654.8 85.8C682 84.3 709 84.7 736.2 86C763.3 87.3 790.7 89.7 818 90.5C845.3 91.3 872.7 90.7 886.3 90.3L900 90L900 63L886.3 61.3C872.7 59.7 845.3 56.3 818 57.2C790.7 58 763.3 63 736.2 62.5C709 62 682 56 654.8 55.8C627.7 55.7 600.3 61.3 573 65.7C545.7 70 518.3 73 491 71.7C463.7 70.3 436.3 64.7 409 64C381.7 63.3 354.3 67.7 327 67.3C299.7 67 272.3 62 245.2 60.8C218 59.7 191 62.3 163.8 63.7C136.7 65 109.3 65 82 64.3C54.7 63.7 27.3 62.3 13.7 61.7L0 61Z" fill="#e23975"></path><path d="M0 101L13.7 101C27.3 101 54.7 101 82 101C109.3 101 136.7 101 163.8 101C191 101 218 101 245.2 101C272.3 101 299.7 101 327 101C354.3 101 381.7 101 409 101C436.3 101 463.7 101 491 101C518.3 101 545.7 101 573 101C600.3 101 627.7 101 654.8 101C682 101 709 101 736.2 101C763.3 101 790.7 101 818 101C845.3 101 872.7 101 886.3 101L900 101L900 88L886.3 88.3C872.7 88.7 845.3 89.3 818 88.5C790.7 87.7 763.3 85.3 736.2 84C709 82.7 682 82.3 654.8 83.8C627.7 85.3 600.3 88.7 573 90.5C545.7 92.3 518.3 92.7 491 91.7C463.7 90.7 436.3 88.3 409 87.2C381.7 86 354.3 86 327 86.3C299.7 86.7 272.3 87.3 245.2 87.3C218 87.3 191 86.7 163.8 86.7C136.7 86.7 109.3 87.3 82 86.8C54.7 86.3 27.3 84.7 13.7 83.8L0 83Z" fill="#dc143c"></path></svg>