<svg id="visual" viewBox="0 0 900 100" width="900" height="100" xmlns="http://www.w3.org/2000/svg" xmlns:xlink="http://www.w3.org/1999/xlink" version="1.1"><path d="M0 7L7.2 8C14.3 9 28.7 11 43 11C57.3 11 71.7 9 86 8.2C100.3 7.3 114.7 7.7 128.8 9C143 10.3 157 12.7 171.2 13.2C185.3 13.7 199.7 12.3 214 12.5C228.3 12.7 242.7 14.3 257 15C271.3 15.7 285.7 15.3 300 15C314.3 14.7 328.7 14.3 343 13.8C357.3 13.3 371.7 12.7 386 11.8C400.3 11 414.7 10 428.8 9.3C443 8.7 457 8.3 471.2 9.2C485.3 10 499.7 12 514 11.8C528.3 11.7 542.7 9.3 557 8.8C571.3 8.3 585.7 9.7 600 9.5C614.3 9.3 628.7 7.7 643 7.5C657.3 7.3 671.7 8.7 686 9.7C700.3 10.7 714.7 11.3 728.8 11.2C743 11 757 10 771.2 10.7C785.3 11.3 799.7 13.7 814 14.2C828.3 14.7 842.7 13.3 857 11.8C871.3 10.3 885.7 8.7 892.8 7.8L900 7L900 0L892.8 0C885.7 0 871.3 0 857 0C842.7 0 828.3 0 814 0C799.7 0 785.3 0 771.2 0C757 0 743 0 728.8 0C714.7 0 700.3 0 686 0C671.7 0 657.3 0 643 0C628.7 0 614.3 0 600 0C585.7 0 571.3 0 557 0C542.7 0 528.3 0 514 0C499.7 0 485.3 0 471.2 0C457 0 443 0 428.8 0C414.7 0 400.3 0 386 0C371.7 0 357.3 0 343 0C328.7 0 314.3 0 300 0C285.7 0 271.3 0 257 0C242.7 0 228.3 0 214 0C199.7 0 185.3 0 171.2 0C157 0 143 0 128.8 0C114.7 0 100.3 0 86 0C71.7 0 57.3 0 43 0C28.7 0 14.3 0 7.2 0L0 0Z" fill="#b0c4de"></path><path d="M0 25L7.2 24.2C14.3 23.3 28.7 21.7 43 20.3C57.3 19 71.7 18 86 17.3C100.3 16.7 114.7 16.3 128.8 17.5C143 18.7 157 21.3 171.2 21.7C185.3 22 199.7 20 214 21C228.3 22 242.7 26 257 26.7C271.3 27.3 285.7 24.7 300 23.8C314.3 23 328.7 24 343 25.2C357.3 26.3 371.7 27.7 386 26.7C400.3 25.7 414.7 22.3 428.8 20.3C443 18.3 457 17.7 471.2 19.2C485.3 20.7 499.7 24.3 514 25C528.3 25.7 542.7 23.3 557 23C571.3 22.7 585.7 24.3 600 24.8C614.3 25.3 628.7 24.7 643 23.7C657.3 22.7 671.7 21.3 686 20.7C700.3 20 714.7 20 728.8 20.5C743 21 757 22 771.2 23.8C785.3 25.7 799.7 28.3 814 29.2C828.3 30 842.7 29 857 26.5C871.3 24 885.7 20 892.8 18L900 16L900 5L892.8 5.8C885.7 6.7 871.3 8.3 857 9.8C842.7 11.3 828.3 12.7 814 12.2C799.7 11.7 785.3 9.3 771.2 8.7C757 8 743 9 728.8 9.2C714.7 9.3 700.3 8.7 686 7.7C671.7 6.7 657.3 5.3 643 5.5C628.7 5.7 614.3 7.3 600 7.5C585.7 7.7 571.3 6.3 557 6.8C542.7 7.3 528.3 9.7 514 9.8C499.7 10 485.3 8 471.2 7.2C457 6.3 443 6.7 428.8 7.3C414.7 8 400.3 9 386 9.8C371.7 10.7 357.3 11.3 343 11.8C328.7 12.3 314.3 12.7 300 13C285.7 13.3 271.3 13.7 257 13C242.7 12.3 228.3 10.7 214 10.5C199.7 10.3 185.3 11.7 171.2 11.2C157 10.7 143 8.3 128.8 7C114.7 5.7 100.3 5.3 86 6.2C71.7 7 57.3 9 43 9C28.7 9 14.3 7 7.2 6L0 5Z" fill="#adb0dc"></path><path d="M0 48L7.2 47.7C14.3 47.3 28.7 46.7 43 48.3C57.3 50 71.7 54 86 55C100.3 56 114.7 54 128.8 52.5C143 51 157 50 171.2 50C185.3 50 199.7 51 214 52.2C228.3 53.3 242.7 54.7 257 54.8C271.3 55 285.7 54 300 54.5C314.3 55 328.7 57 343 58.5C357.3 60 371.7 61 386 59.7C400.3 58.3 414.7 54.7 428.8 52C443 49.3 457 47.7 471.2 51C485.3 54.3 499.7 62.7 514 61.2C528.3 59.7 542.7 48.3 557 46C571.3 43.7 585.7 50.3 600 53.2C614.3 56 628.7 55 643 52.5C657.3 50 671.7 46 686 47.5C700.3 49 714.7 56 728.8 58.5C743 61 757 59 771.2 59.2C785.3 59.3 799.7 61.7 814 60.3C828.3 59 842.7 54 857 52.8C871.3 51.7 885.7 54.3 892.8 55.7L900 57L900 14L892.8 16C885.7 18 871.3 22 857 24.5C842.7 27 828.3 28 814 27.2C799.7 26.3 785.3 23.7 771.2 21.8C757 20 743 19 728.8 18.5C714.7 18 700.3 18 686 18.7C671.7 19.3 657.3 20.7 643 21.7C628.7 22.7 614.3 23.3 600 22.8C585.7 22.3 571.3 20.7 557 21C542.7 21.3 528.3 23.7 514 23C499.7 22.3 485.3 18.7 471.2 17.2C457 15.7 443 16.3 428.8 18.3C414.7 20.3 400.3 23.7 386 24.7C371.7 25.7 357.3 24.3 343 23.2C328.7 22 314.3 21 300 21.8C285.7 22.7 271.3 25.3 257 24.7C242.7 24 228.3 20 214 19C199.7 18 185.3 20 171.2 19.7C157 19.3 143 16.7 128.8 15.5C114.7 14.3 100.3 14.7 86 15.3C71.7 16 57.3 17 43 18.3C28.7 19.7 14.3 21.3 7.2 22.2L0 23Z" fill="#ba98cf"></path><path d="M0 57L7.2 57.5C14.3 58 28.7 59 43 60.8C57.3 62.7 71.7 65.3 86 66.3C100.3 67.3 114.7 66.7 128.8 65.5C143 64.3 157 62.7 171.2 62.7C185.3 62.7 199.7 64.3 214 65.8C228.3 67.3 242.7 68.7 257 68.2C271.3 67.7 285.7 65.3 300 65.3C314.3 65.3 328.7 67.7 343 69.2C357.3 70.7 371.7 71.3 386 69.7C400.3 68 414.7 64 428.8 62C443 60 457 60 471.2 62.7C485.3 65.3 499.7 70.7 514 68.3C528.3 66 542.7 56 557 54C571.3 52 585.7 58 600 60.8C614.3 63.7 628.7 63.3 643 61C657.3 58.7 671.7 54.3 686 55.7C700.3 57 714.7 64 728.8 66.8C743 69.7 757 68.3 771.2 68.3C785.3 68.3 799.7 69.7 814 68.7C828.3 67.7 842.7 64.3 857 63C871.3 61.7 885.7 62.3 892.8 62.7L900 63L900 55L892.8 53.7C885.7 52.3 871.3 49.7 857 50.8C842.7 52 828.3 57 814 58.3C799.7 59.7 785.3 57.3 771.2 57.2C757 57 743 59 728.8 56.5C714.7 54 700.3 47 686 45.5C671.7 44 657.3 48 643 50.5C628.7 53 614.3 54 600 51.2C585.7 48.3 571.3 41.7 557 44C542.7 46.3 528.3 57.7 514 59.2C499.7 60.7 485.3 52.3 471.2 49C457 45.7 443 47.3 428.8 50C414.7 52.7 400.3 56.3 386 57.7C371.7 59 357.3 58 343 56.5C328.7 55 314.3 53 300 52.5C285.7 52 271.3 53 257 52.8C242.7 52.7 228.3 51.3 214 50.2C199.7 49 185.3 48 171.2 48C157 48 143 49 128.8 50.5C114.7 52 100.3 54 86 53C71.7 52 57.3 48 43 46.3C28.7 44.7 14.3 45.3 7.2 45.7L0 46Z" fill="#cb7db1"></path><path d="M0 81L7.2 81C14.3 81 28.7 81 43 82.7C57.3 84.3 71.7 87.7 86 88.5C100.3 89.3 114.7 87.7 128.8 85.7C143 83.7 157 81.3 171.2 80.3C185.3 79.3 199.7 79.7 214 81.2C228.3 82.7 242.7 85.3 257 87C271.3 88.7 285.7 89.3 300 89C314.3 88.7 328.7 87.3 343 87.5C357.3 87.7 371.7 89.3 386 87.7C400.3 86 414.7 81 428.8 79.7C443 78.3 457 80.7 471.2 83.5C485.3 86.3 499.7 89.7 514 89.3C528.3 89 542.7 85 557 83.3C571.3 81.7 585.7 82.3 600 83.7C614.3 85 628.7 87 643 87.2C657.3 87.3 671.7 85.7 686 85.7C700.3 85.7 714.7 87.3 728.8 88C743 88.7 757 88.3 771.2 88.8C785.3 89.3 799.7 90.7 814 89.5C828.3 88.3 842.7 84.7 857 83C871.3 81.3 885.7 81.7 892.8 81.8L900 82L900 61L892.8 60.7C885.7 60.3 871.3 59.7 857 61C842.7 62.3 828.3 65.7 814 66.7C799.7 67.7 785.3 66.3 771.2 66.3C757 66.3 743 67.7 728.8 64.8C714.7 62 700.3 55 686 53.7C671.7 52.3 657.3 56.7 643 59C628.7 61.3 614.3 61.7 600 58.8C585.7 56 571.3 50 557 52C542.7 54 528.3 64 514 66.3C499.7 68.7 485.3 63.3 471.2 60.7C457 58 443 58 428.8 60C414.7 62 400.3 66 386 67.7C371.7 69.3 357.3 68.7 343 67.2C328.7 65.7 314.3 63.3 300 63.3C285.7 63.3 271.3 65.7 257 66.2C242.7 66.7 228.3 65.3 214 63.8C199.7 62.3 185.3 60.7 171.2 60.7C157 60.7 143 62.3 128.8 63.5C114.7 64.7 100.3 65.3 86 64.3C71.7 63.3 57.3 60.7 43 58.8C28.7 57 14.3 56 7.2 55.5L0 55Z" fill="#d56285"></path><path d="M0 101L7.2 101C14.3 101 28.7 101 43 101C57.3 101 71.7 101 86 101C100.3 101 114.7 101 128.8 101C143 101 157 101 171.2 101C185.3 101 199.7 101 214 101C228.3 101 242.7 101 257 101C271.3 101 285.7 101 300 101C314.3 101 328.7 101 343 101C357.3 101 371.7 101 386 101C400.3 101 414.7 101 428.8 101C443 101 457 101 471.2 101C485.3 101 499.7 101 514 101C528.3 101 542.7 101 557 101C571.3 101 585.7 101 600 101C614.3 101 628.7 101 643 101C657.3 101 671.7 101 686 101C700.3 101 714.7 101 728.8 101C743 101 757 101 771.2 101C785.3 101 799.7 101 814 101C828.3 101 842.7 101 857 101C871.3 101 885.7 101 892.8 101L900 101L900 80L892.8 79.8C885.7 79.7 871.3 79.3 857 81C842.7 82.7 828.3 86.3 814 87.5C799.7 88.7 785.3 87.3 771.2 86.8C757 86.3 743 86.7 728.8 86C714.7 85.3 700.3 83.7 686 83.7C671.7 83.7 657.3 85.3 643 85.2C628.7 85 614.3 83 600 81.7C585.7 80.3 571.3 79.7 557 81.3C542.7 83 528.3 87 514 87.3C499.7 87.7 485.3 84.3 471.2 81.5C457 78.7 443 76.3 428.8 77.7C414.7 79 400.3 84 386 85.7C371.7 87.3 357.3 85.7 343 85.5C328.7 85.3 314.3 86.7 300 87C285.7 87.3 271.3 86.7 257 85C242.7 83.3 228.3 80.7 214 79.2C199.7 77.7 185.3 77.3 171.2 78.3C157 79.3 143 81.7 128.8 83.7C114.7 85.7 100.3 87.3 86 86.5C71.7 85.7 57.3 82.3 43 80.7C28.7 79 14.3 79 7.2 79L0 79Z" fill="#cf5050"></path></svg>