<svg id="visual" viewBox="0 0 900 100" width="900" height="100" xmlns="http://www.w3.org/2000/svg" xmlns:xlink="http://www.w3.org/1999/xlink" version="1.1"><rect x="0" y="0" width="900" height="100" fill="#001220"></rect><path d="M0 47L21.5 43.5C43 40 86 33 128.8 30.2C171.7 27.3 214.3 28.7 257.2 31.2C300 33.7 343 37.3 385.8 36.3C428.7 35.3 471.3 29.7 514.2 29.5C557 29.3 600 34.7 642.8 36.5C685.7 38.3 728.3 36.7 771.2 34.7C814 32.7 857 30.3 878.5 29.2L900 28L900 101L878.5 101C857 101 814 101 771.2 101C728.3 101 685.7 101 642.8 101C600 101 557 101 514.2 101C471.3 101 428.7 101 385.8 101C343 101 300 101 257.2 101C214.3 101 171.7 101 128.8 101C86 101 43 101 21.5 101L0 101Z" fill="#4b0082"></path><path d="M0 35L21.5 37.7C43 40.3 86 45.7 128.8 48.5C171.7 51.3 214.3 51.7 257.2 49.5C300 47.3 343 42.7 385.8 41.5C428.7 40.3 471.3 42.7 514.2 41C557 39.3 600 33.7 642.8 31.8C685.7 30 728.3 32 771.2 31.2C814 30.3 857 26.7 878.5 24.8L900 23L900 101L878.5 101C857 101 814 101 771.2 101C728.3 101 685.7 101 642.8 101C600 101 557 101 514.2 101C471.3 101 428.7 101 385.8 101C343 101 300 101 257.2 101C214.3 101 171.7 101 128.8 101C86 101 43 101 21.5 101L0 101Z" fill="#4c228f"></path><path d="M0 34L21.5 34.8C43 35.7 86 37.3 128.8 40.3C171.7 43.3 214.3 47.7 257.2 47.7C300 47.7 343 43.3 385.8 39.8C428.7 36.3 471.3 33.7 514.2 35.8C557 38 600 45 642.8 45.5C685.7 46 728.3 40 771.2 36.8C814 33.7 857 33.3 878.5 33.2L900 33L900 101L878.5 101C857 101 814 101 771.2 101C728.3 101 685.7 101 642.8 101C600 101 557 101 514.2 101C471.3 101 428.7 101 385.8 101C343 101 300 101 257.2 101C214.3 101 171.7 101 128.8 101C86 101 43 101 21.5 101L0 101Z" fill="#4e369c"></path><path d="M0 40L21.5 41C43 42 86 44 128.8 44C171.7 44 214.3 42 257.2 41.8C300 41.7 343 43.3 385.8 44.3C428.7 45.3 471.3 45.7 514.2 44.3C557 43 600 40 642.8 38.5C685.7 37 728.3 37 771.2 36.8C814 36.7 857 36.3 878.5 36.2L900 36L900 101L878.5 101C857 101 814 101 771.2 101C728.3 101 685.7 101 642.8 101C600 101 557 101 514.2 101C471.3 101 428.7 101 385.8 101C343 101 300 101 257.2 101C214.3 101 171.7 101 128.8 101C86 101 43 101 21.5 101L0 101Z" fill="#5048a7"></path><path d="M0 65L21.5 62C43 59 86 53 128.8 51.5C171.7 50 214.3 53 257.2 55.3C300 57.7 343 59.3 385.8 60.5C428.7 61.7 471.3 62.3 514.2 61.5C557 60.7 600 58.3 642.8 55.7C685.7 53 728.3 50 771.2 50.8C814 51.7 857 56.3 878.5 58.7L900 61L900 101L878.5 101C857 101 814 101 771.2 101C728.3 101 685.7 101 642.8 101C600 101 557 101 514.2 101C471.3 101 428.7 101 385.8 101C343 101 300 101 257.2 101C214.3 101 171.7 101 128.8 101C86 101 43 101 21.5 101L0 101Z" fill="#5559b0"></path><path d="M0 54L21.5 53.2C43 52.3 86 50.7 128.8 51.2C171.7 51.7 214.3 54.3 257.2 56C300 57.7 343 58.3 385.8 57C428.7 55.7 471.3 52.3 514.2 53.3C557 54.3 600 59.7 642.8 59.7C685.7 59.7 728.3 54.3 771.2 53.5C814 52.7 857 56.3 878.5 58.2L900 60L900 101L878.5 101C857 101 814 101 771.2 101C728.3 101 685.7 101 642.8 101C600 101 557 101 514.2 101C471.3 101 428.7 101 385.8 101C343 101 300 101 257.2 101C214.3 101 171.7 101 128.8 101C86 101 43 101 21.5 101L0 101Z" fill="#5c69b9"></path><path d="M0 72L21.5 72.2C43 72.3 86 72.7 128.8 70C171.7 67.3 214.3 61.7 257.2 59.3C300 57 343 58 385.8 59.3C428.7 60.7 471.3 62.3 514.2 63.3C557 64.3 600 64.7 642.8 64.8C685.7 65 728.3 65 771.2 64.2C814 63.3 857 61.7 878.5 60.8L900 60L900 101L878.5 101C857 101 814 101 771.2 101C728.3 101 685.7 101 642.8 101C600 101 557 101 514.2 101C471.3 101 428.7 101 385.8 101C343 101 300 101 257.2 101C214.3 101 171.7 101 128.8 101C86 101 43 101 21.5 101L0 101Z" fill="#6579c1"></path><path d="M0 62L21.5 63.5C43 65 86 68 128.8 70.2C171.7 72.3 214.3 73.7 257.2 74.7C300 75.7 343 76.3 385.8 75C428.7 73.7 471.3 70.3 514.2 70C557 69.7 600 72.3 642.8 72.8C685.7 73.3 728.3 71.7 771.2 71.5C814 71.3 857 72.7 878.5 73.3L900 74L900 101L878.5 101C857 101 814 101 771.2 101C728.3 101 685.7 101 642.8 101C600 101 557 101 514.2 101C471.3 101 428.7 101 385.8 101C343 101 300 101 257.2 101C214.3 101 171.7 101 128.8 101C86 101 43 101 21.5 101L0 101Z" fill="#7088c8"></path><path d="M0 81L21.5 80C43 79 86 77 128.8 76.7C171.7 76.3 214.3 77.7 257.2 76.7C300 75.7 343 72.3 385.8 70.8C428.7 69.3 471.3 69.7 514.2 70C557 70.3 600 70.7 642.8 72.2C685.7 73.7 728.3 76.3 771.2 77C814 77.7 857 76.3 878.5 75.7L900 75L900 101L878.5 101C857 101 814 101 771.2 101C728.3 101 685.7 101 642.8 101C600 101 557 101 514.2 101C471.3 101 428.7 101 385.8 101C343 101 300 101 257.2 101C214.3 101 171.7 101 128.8 101C86 101 43 101 21.5 101L0 101Z" fill="#7d98ce"></path><path d="M0 85L21.5 84.3C43 83.7 86 82.3 128.8 80.8C171.7 79.3 214.3 77.7 257.2 77C300 76.3 343 76.7 385.8 76.7C428.7 76.7 471.3 76.3 514.2 77.2C557 78 600 80 642.8 80.3C685.7 80.7 728.3 79.3 771.2 78.5C814 77.7 857 77.3 878.5 77.2L900 77L900 101L878.5 101C857 101 814 101 771.2 101C728.3 101 685.7 101 642.8 101C600 101 557 101 514.2 101C471.3 101 428.7 101 385.8 101C343 101 300 101 257.2 101C214.3 101 171.7 101 128.8 101C86 101 43 101 21.5 101L0 101Z" fill="#8da7d4"></path><path d="M0 90L21.5 88.7C43 87.3 86 84.7 128.8 84.5C171.7 84.3 214.3 86.7 257.2 88.2C300 89.7 343 90.3 385.8 90.2C428.7 90 471.3 89 514.2 88.2C557 87.3 600 86.7 642.8 85.8C685.7 85 728.3 84 771.2 84C814 84 857 85 878.5 85.5L900 86L900 101L878.5 101C857 101 814 101 771.2 101C728.3 101 685.7 101 642.8 101C600 101 557 101 514.2 101C471.3 101 428.7 101 385.8 101C343 101 300 101 257.2 101C214.3 101 171.7 101 128.8 101C86 101 43 101 21.5 101L0 101Z" fill="#9eb5d9"></path><path d="M0 92L21.5 91.5C43 91 86 90 128.8 90.5C171.7 91 214.3 93 257.2 93.7C300 94.3 343 93.7 385.8 93.3C428.7 93 471.3 93 514.2 92.5C557 92 600 91 642.8 90.8C685.7 90.7 728.3 91.3 771.2 92C814 92.7 857 93.3 878.5 93.7L900 94L900 101L878.5 101C857 101 814 101 771.2 101C728.3 101 685.7 101 642.8 101C600 101 557 101 514.2 101C471.3 101 428.7 101 385.8 101C343 101 300 101 257.2 101C214.3 101 171.7 101 128.8 101C86 101 43 101 21.5 101L0 101Z" fill="#b0c4de"></path></svg>