<svg id="visual" viewBox="0 0 900 75" width="900" height="75" xmlns="http://www.w3.org/2000/svg" xmlns:xlink="http://www.w3.org/1999/xlink" version="1.1"><path d="M0 33L13.7 31.7C27.3 30.3 54.7 27.7 82 24.7C109.3 21.7 136.7 18.3 163.8 17.7C191 17 218 19 245.2 20.5C272.3 22 299.7 23 327 25.5C354.3 28 381.7 32 409 30C436.3 28 463.7 20 491 17.5C518.3 15 545.7 18 573 19.8C600.3 21.7 627.7 22.3 654.8 24C682 25.7 709 28.3 736.2 28.2C763.3 28 790.7 25 818 23.7C845.3 22.3 872.7 22.7 886.3 22.8L900 23L900 0L886.3 0C872.7 0 845.3 0 818 0C790.7 0 763.3 0 736.2 0C709 0 682 0 654.8 0C627.7 0 600.3 0 573 0C545.7 0 518.3 0 491 0C463.7 0 436.3 0 409 0C381.7 0 354.3 0 327 0C299.7 0 272.3 0 245.2 0C218 0 191 0 163.8 0C136.7 0 109.3 0 82 0C54.7 0 27.3 0 13.7 0L0 0Z" fill="#b0c4de"></path><path d="M0 51L13.7 50.5C27.3 50 54.7 49 82 47.2C109.3 45.3 136.7 42.7 163.8 40.7C191 38.7 218 37.3 245.2 37.5C272.3 37.7 299.7 39.3 327 41.2C354.3 43 381.7 45 409 44C436.3 43 463.7 39 491 37.5C518.3 36 545.7 37 573 38C600.3 39 627.7 40 654.8 40.7C682 41.3 709 41.7 736.2 41.8C763.3 42 790.7 42 818 42.7C845.3 43.3 872.7 44.7 886.3 45.3L900 46L900 21L886.3 20.8C872.7 20.7 845.3 20.3 818 21.7C790.7 23 763.3 26 736.2 26.2C709 26.3 682 23.7 654.8 22C627.7 20.3 600.3 19.7 573 17.8C545.7 16 518.3 13 491 15.5C463.7 18 436.3 26 409 28C381.7 30 354.3 26 327 23.5C299.7 21 272.3 20 245.2 18.5C218 17 191 15 163.8 15.7C136.7 16.3 109.3 19.7 82 22.7C54.7 25.7 27.3 28.3 13.7 29.7L0 31Z" fill="#c2badd"></path><path d="M0 59L13.7 59.7C27.3 60.3 54.7 61.7 82 59.8C109.3 58 136.7 53 163.8 51C191 49 218 50 245.2 50.8C272.3 51.7 299.7 52.3 327 53C354.3 53.7 381.7 54.3 409 53.5C436.3 52.7 463.7 50.3 491 49.7C518.3 49 545.7 50 573 50C600.3 50 627.7 49 654.8 49.5C682 50 709 52 736.2 52.7C763.3 53.3 790.7 52.7 818 53.2C845.3 53.7 872.7 55.3 886.3 56.2L900 57L900 44L886.3 43.3C872.7 42.7 845.3 41.3 818 40.7C790.7 40 763.3 40 736.2 39.8C709 39.7 682 39.3 654.8 38.7C627.7 38 600.3 37 573 36C545.7 35 518.3 34 491 35.5C463.7 37 436.3 41 409 42C381.7 43 354.3 41 327 39.2C299.7 37.3 272.3 35.7 245.2 35.5C218 35.3 191 36.7 163.8 38.7C136.7 40.7 109.3 43.3 82 45.2C54.7 47 27.3 48 13.7 48.5L0 49Z" fill="#daafcd"></path><path d="M0 69L13.7 69.2C27.3 69.3 54.7 69.7 82 68.2C109.3 66.7 136.7 63.3 163.8 62C191 60.7 218 61.3 245.2 61.8C272.3 62.3 299.7 62.7 327 62.7C354.3 62.7 381.7 62.3 409 61.8C436.3 61.3 463.7 60.7 491 60.3C518.3 60 545.7 60 573 59.2C600.3 58.3 627.7 56.7 654.8 57.5C682 58.3 709 61.7 736.2 63C763.3 64.3 790.7 63.7 818 63.5C845.3 63.3 872.7 63.7 886.3 63.8L900 64L900 55L886.3 54.2C872.7 53.3 845.3 51.7 818 51.2C790.7 50.7 763.3 51.3 736.2 50.7C709 50 682 48 654.8 47.5C627.7 47 600.3 48 573 48C545.7 48 518.3 47 491 47.7C463.7 48.3 436.3 50.7 409 51.5C381.7 52.3 354.3 51.7 327 51C299.7 50.3 272.3 49.7 245.2 48.8C218 48 191 47 163.8 49C136.7 51 109.3 56 82 57.8C54.7 59.7 27.3 58.3 13.7 57.7L0 57Z" fill="#e8a7b0"></path><path d="M0 76L13.7 76C27.3 76 54.7 76 82 76C109.3 76 136.7 76 163.8 76C191 76 218 76 245.2 76C272.3 76 299.7 76 327 76C354.3 76 381.7 76 409 76C436.3 76 463.7 76 491 76C518.3 76 545.7 76 573 76C600.3 76 627.7 76 654.8 76C682 76 709 76 736.2 76C763.3 76 790.7 76 818 76C845.3 76 872.7 76 886.3 76L900 76L900 62L886.3 61.8C872.7 61.7 845.3 61.3 818 61.5C790.7 61.7 763.3 62.3 736.2 61C709 59.7 682 56.3 654.8 55.5C627.7 54.7 600.3 56.3 573 57.2C545.7 58 518.3 58 491 58.3C463.7 58.7 436.3 59.3 409 59.8C381.7 60.3 354.3 60.7 327 60.7C299.7 60.7 272.3 60.3 245.2 59.8C218 59.3 191 58.7 163.8 60C136.7 61.3 109.3 64.7 82 66.2C54.7 67.7 27.3 67.3 13.7 67.2L0 67Z" fill="#e5a790"></path></svg>